<svg width="24" height="24" viewBox="0 0 24 24" fill="none" xmlns="http://www.w3.org/2000/svg">
<path d="M13.7072 16.9907L13.7636 16.8365C14.1687 16.9846 14.6071 17.0168 15.0296 16.9296C15.4516 16.8425 15.841 16.6397 16.1542 16.3438C16.4516 16.0593 16.7981 15.8311 17.1768 15.6701C17.4721 15.5443 17.7984 15.5101 18.1133 15.5721C18.4276 15.634 18.7161 15.7888 18.9414 16.0165C18.9418 16.0169 18.9422 16.0173 18.9427 16.0177L21.0236 18.0987C21.024 18.0991 21.0244 18.0995 21.0248 18.0999C21.203 18.2766 21.3368 18.493 21.4153 18.7314C21.4937 18.9698 21.5146 19.2234 21.4762 19.4714M13.7072 16.9907L21.4759 19.4732C21.476 19.4726 21.4761 19.472 21.4762 19.4714M13.7072 16.9907L13.7292 16.8231C12.4979 16.4934 11.0263 15.5081 9.75992 14.241C8.4935 12.9738 7.50999 11.5025 7.18314 10.2717L7.17719 10.2493L7.16918 10.2275C7.02083 9.82406 6.98766 9.38728 7.07336 8.96604C7.15895 8.54536 7.35972 8.15674 7.65328 7.84352C7.93788 7.54454 8.16567 7.19624 8.32548 6.81565C8.4506 6.52089 8.4844 6.19536 8.4225 5.88116C8.36061 5.56709 8.20595 5.27881 7.97851 5.05359L5.89536 2.97044L13.7072 16.9907ZM21.4762 19.4714C21.4383 19.7238 21.3412 19.9637 21.1926 20.1713C21.0446 20.3781 20.8499 20.5471 20.6242 20.6643M21.4762 19.4714L20.6242 20.6643M20.6242 20.6643C19.0539 21.5072 17.2217 21.721 15.4996 21.2621C13.1012 20.6596 10.2084 18.618 7.79485 16.2045C5.381 13.7908 3.33781 10.8965 2.73187 8.49549C2.27357 6.77153 2.48779 4.93779 3.33113 3.36587C3.4493 3.14069 3.61899 2.94659 3.82639 2.79938C4.03374 2.6522 4.27291 2.55607 4.52442 2.5188C4.60505 2.50612 4.68657 2.49986 4.7682 2.50008L20.6242 20.6643ZM9.2335 7.23637L9.23283 7.23793C9.02121 7.72821 8.72142 8.17548 8.34834 8.55752C8.15347 8.75302 8.07185 9.00424 8.05247 9.24763C8.03332 9.48808 8.0716 9.74886 8.14288 10.0153L8.15095 10.0455L8.16272 10.0744C8.68992 11.371 9.47147 12.5488 10.4613 13.5384C11.451 14.528 12.629 15.3093 13.9256 15.8363L13.9544 15.848L13.9843 15.856C14.4792 15.9888 15.0551 16.0348 15.4416 15.6524C15.8233 15.2794 16.2702 14.9797 16.7601 14.7681L16.762 14.7673C17.2429 14.5573 17.7759 14.497 18.2915 14.5945C18.8071 14.692 19.2813 14.9426 19.6523 15.3136L19.6523 15.3136L21.7376 17.3989C21.7377 17.399 21.7379 17.3991 21.738 17.3993C22.0265 17.6892 22.2429 18.0428 22.3696 18.4316C22.4964 18.8207 22.5299 19.2341 22.4675 19.6385C22.4051 20.0429 22.2485 20.4269 22.0103 20.7597C21.7722 21.0924 21.4591 21.3644 21.0964 21.5539L21.0964 21.5539L21.0931 21.5556C19.9322 22.1731 18.6375 22.4963 17.3225 22.4971C16.6286 22.4958 15.9374 22.4089 15.2648 22.2384L15.2634 22.2381C12.7509 21.6084 9.6942 19.534 7.0812 16.9209C4.46832 14.3079 2.39231 11.2494 1.75768 8.73568L1.75769 8.73568L1.75679 8.73221C1.24723 6.77317 1.49156 4.69422 2.44143 2.9067L2.44144 2.90671L2.44351 2.90274C2.63341 2.53752 2.9073 2.22261 3.24267 1.98392C3.57803 1.74523 3.96528 1.58958 4.37254 1.52977L4.37254 1.52979L4.37739 1.52903C4.77918 1.46599 5.19021 1.49944 5.57652 1.62661C5.96283 1.75378 6.31335 1.97103 6.59913 2.26041L6.59913 2.26042L6.60142 2.26271L8.6871 4.34739C8.68717 4.34746 8.68724 4.34753 8.68731 4.34759C9.05775 4.71862 9.30796 5.19253 9.4054 5.7077C9.50285 6.22296 9.44296 6.75562 9.2335 7.23637ZM16.4999 6.00008V6.50008H16.9999H18.9999C19.1325 6.50008 19.2597 6.55275 19.3534 6.64652C19.4472 6.74029 19.4999 6.86747 19.4999 7.00008C19.4999 7.13268 19.4472 7.25986 19.3534 7.35363C19.2597 7.4474 19.1325 7.50008 18.9999 7.50008H16.9999H16.4999V8.00008V10.0001C16.4999 10.1327 16.4472 10.2599 16.3534 10.3536C16.2597 10.4474 16.1325 10.5001 15.9999 10.5001C15.8673 10.5001 15.7401 10.4474 15.6463 10.3536C15.5526 10.2599 15.4999 10.1327 15.4999 10.0001V8.00008V7.50008H14.9999H12.9999C12.8673 7.50008 12.7401 7.4474 12.6463 7.35363C12.5526 7.25986 12.4999 7.13268 12.4999 7.00008C12.4999 6.86747 12.5526 6.74029 12.6463 6.64652C12.7401 6.55275 12.8673 6.50008 12.9999 6.50008H14.9999H15.4999V6.00008V4.00008C15.4999 3.86747 15.5526 3.74029 15.6463 3.64652C15.7401 3.55275 15.8673 3.50008 15.9999 3.50008C16.1325 3.50008 16.2597 3.55275 16.3534 3.64652C16.4472 3.74029 16.4999 3.86747 16.4999 4.00008V6.00008Z" stroke="#3C3C3C"/>
</svg>
