<svg width="24" height="24" viewBox="0 0 24 24" fill="none" xmlns="http://www.w3.org/2000/svg">
<path d="M21 19.5H21.5V19V9.477V8.73842L20.8143 9.01278L12.1878 12.4641C12.1876 12.4642 12.1874 12.4643 12.1871 12.4644C12.0669 12.5119 11.9331 12.5119 11.8129 12.4644C11.8126 12.4643 11.8124 12.4642 11.8122 12.4641L3.18573 9.01278L2.5 8.73842V9.477V19V19.5H3H21ZM21.1857 7.78724L21.5 7.66152V7.323V5V4.5H21H3H2.5V5V7.323V7.66152L2.8143 7.78724L11.8143 11.3872L12 11.4615L12.1857 11.3872L21.1857 7.78724ZM2 3.5H22C22.1326 3.5 22.2598 3.55268 22.3536 3.64645C22.4473 3.74021 22.5 3.86739 22.5 4V20C22.5 20.1326 22.4473 20.2598 22.3536 20.3536C22.2598 20.4473 22.1326 20.5 22 20.5H2C1.86739 20.5 1.74021 20.4473 1.64645 20.3536C1.55268 20.2598 1.5 20.1326 1.5 20V4C1.5 3.86739 1.55268 3.74021 1.64645 3.64645C1.74021 3.55268 1.86739 3.5 2 3.5Z" stroke="#3C3C3C"/>
</svg>
