<svg width="24" height="24" viewBox="0 0 24 24" fill="none" xmlns="http://www.w3.org/2000/svg">
<path d="M21 1.99993L3.00002 1.99993C2.82955 1.99985 2.66188 2.04335 2.51295 2.12631C2.36402 2.20926 2.23877 2.32891 2.14909 2.4739C2.05942 2.61888 2.0083 2.78438 2.00058 2.95469C1.99287 3.12499 2.02882 3.29443 2.10502 3.44693L11.105 21.4469C11.1974 21.6019 11.3285 21.7302 11.4854 21.8194C11.6423 21.9085 11.8196 21.9553 12 21.9553C12.1805 21.9553 12.3578 21.9085 12.5147 21.8194C12.6716 21.7302 12.8026 21.6019 12.895 21.4469L21.895 3.44693C21.9712 3.29444 22.0072 3.12499 21.9995 2.95469C21.9918 2.78439 21.9406 2.61888 21.851 2.4739C21.7613 2.32892 21.636 2.20926 21.4871 2.12631C21.3382 2.04336 21.1705 1.99985 21 1.99993ZM12 18.7639L4.61802 3.99993L19.382 3.99993L12 18.7639Z" fill="#3C3C3C"/>
</svg>
