<svg width="24" height="24" viewBox="0 0 24 24" fill="none" xmlns="http://www.w3.org/2000/svg">
<path d="M14.5001 9.74161C13.7602 10.236 12.8904 10.4999 12.0006 10.5H12.0006C10.8074 10.4986 9.66348 10.0239 8.81977 9.18023C7.97615 8.3366 7.50153 7.19285 7.5 5.99979C7.50004 5.10985 7.76396 4.2399 8.25839 3.49994C8.75285 2.75991 9.45566 2.18314 10.2779 1.84254C11.1002 1.50195 12.005 1.41284 12.8779 1.58647C13.7508 1.7601 14.5526 2.18869 15.182 2.81802C15.8113 3.44736 16.2399 4.24918 16.4135 5.1221C16.5872 5.99501 16.4981 6.89981 16.1575 7.72208C15.8169 8.54434 15.2401 9.24715 14.5001 9.74161ZM13.9445 3.08986C13.3689 2.70527 12.6922 2.5 12 2.5C11.0717 2.5 10.1815 2.86875 9.52513 3.52513C8.86875 4.18151 8.5 5.07174 8.5 6C8.5 6.69224 8.70527 7.36893 9.08986 7.9445C9.47444 8.52007 10.0211 8.96867 10.6606 9.23358C11.3001 9.49849 12.0039 9.5678 12.6828 9.43275C13.3617 9.2977 13.9854 8.96436 14.4749 8.47488C14.9644 7.98539 15.2977 7.36175 15.4327 6.68282C15.5678 6.00388 15.4985 5.30015 15.2336 4.66061C14.9687 4.02107 14.5201 3.47444 13.9445 3.08986ZM3.5 22C3.5 19.7457 4.39553 17.5837 5.98959 15.9896C7.58365 14.3955 9.74566 13.5 12 13.5C14.2543 13.5 16.4163 14.3955 18.0104 15.9896C19.6045 17.5837 20.5 19.7457 20.5 22C20.5 22.1326 20.4473 22.2598 20.3536 22.3536C20.2598 22.4473 20.1326 22.5 20 22.5C19.8674 22.5 19.7402 22.4473 19.6464 22.3536C19.5527 22.2598 19.5 22.1326 19.5 22C19.5 20.0109 18.7098 18.1032 17.3033 16.6967C15.8968 15.2902 13.9891 14.5 12 14.5C10.0109 14.5 8.10322 15.2902 6.6967 16.6967C5.29018 18.1032 4.5 20.0109 4.5 22C4.5 22.1326 4.44732 22.2598 4.35355 22.3536C4.25979 22.4473 4.13261 22.5 4 22.5C3.86739 22.5 3.74021 22.4473 3.64645 22.3536C3.55268 22.2598 3.5 22.1326 3.5 22Z" stroke="#3C3C3C"/>
</svg>
